<svg width="11" height="13" viewBox="0 0 11 13" fill="none" xmlns="http://www.w3.org/2000/svg">
<path d="M5.44628 3C6.03306 3 6.76859 2.60331 7.20661 2.07438C7.6033 1.59504 7.89256 0.92562 7.89256 0.256199C7.89256 0.165289 7.8843 0.0743802 7.86777 0C7.21488 0.0247934 6.42975 0.438017 5.95868 0.991736C5.58678 1.41322 5.24793 2.07438 5.24793 2.75207C5.24793 2.85124 5.26446 2.95041 5.27273 2.98347C5.31405 2.99174 5.38017 3 5.44628 3ZM3.38017 13C4.18182 13 4.53719 12.4628 5.53719 12.4628C6.55372 12.4628 6.77686 12.9835 7.66942 12.9835C8.54545 12.9835 9.13223 12.1736 9.68595 11.3802C10.3058 10.4711 10.562 9.57851 10.5785 9.53719C10.5207 9.52066 8.84297 8.83471 8.84297 6.90909C8.84297 5.23967 10.1653 4.4876 10.2397 4.42975C9.36364 3.17355 8.03306 3.1405 7.66942 3.1405C6.68595 3.1405 5.8843 3.73554 5.38017 3.73554C4.83471 3.73554 4.1157 3.17355 3.26446 3.17355C1.64463 3.17355 0 4.5124 0 7.04132C0 8.61157 0.61157 10.2727 1.36364 11.3471C2.00826 12.2562 2.57025 13 3.38017 13Z" fill="black"/>
</svg>